<svg xmlns="http://www.w3.org/2000/svg" xmlns:xlink="http://www.w3.org/1999/xlink" width="1000" zoomAndPan="magnify" viewBox="0 0 750 749.999995" height="1000" preserveAspectRatio="xMidYMid meet" version="1.0"><path fill="#010501" d="M 274.175781 605.628906 L 254.96875 612.863281 C 254.777344 612.914062 254.589844 612.914062 254.398438 612.839844 L 174.980469 578.023438 C 174.339844 577.738281 174.410156 576.808594 175.078125 576.617188 L 237.953125 560.101562 C 238.214844 560.03125 238.523438 560.125 238.714844 560.363281 L 274.484375 604.488281 C 274.792969 604.867188 274.652344 605.464844 274.175781 605.628906 Z M 431.414062 470.335938 C 434.390625 469.359375 437.839844 467.644531 441.765625 465.191406 C 461.449219 452.984375 481.058594 440.679688 500.644531 428.328125 C 505.953125 424.972656 512.855469 419.378906 521.300781 411.550781 C 521.324219 411.527344 521.351562 411.480469 521.351562 411.429688 L 521.351562 411.359375 C 521.351562 411.3125 521.300781 411.289062 521.253906 411.3125 C 507.546875 421.308594 493.457031 431.515625 477.226562 440.894531 C 463.160156 449.035156 448.214844 458.363281 432.390625 468.90625 C 432.128906 469.070312 431.820312 469.546875 431.414062 470.335938 C 415.5625 476.210938 399.640625 482.066406 383.648438 487.898438 C 378.652344 489.730469 370.582031 493.800781 364.421875 497.65625 C 344.40625 510.195312 331.554688 518.074219 325.816406 521.261719 C 298.878906 536.257812 273.03125 547.296875 248.257812 554.390625 C 228.386719 560.078125 206.371094 566.125 182.214844 572.550781 C 180.574219 572.976562 178.695312 573.714844 176.574219 574.738281 C 175.957031 575.046875 175.289062 575.261719 174.601562 575.382812 C 165.648438 576.832031 153.511719 578.738281 138.210938 581.140625 C 132.757812 581.996094 119.050781 583.355469 110.9375 580.949219 C 108.652344 580.285156 107.199219 577.738281 107.507812 574.90625 C 108.292969 567.433594 116.789062 560.9375 122.859375 555.628906 C 123 555.507812 122.976562 555.246094 122.789062 555.175781 L 5.460938 509.957031 C 3.984375 509.386719 3.746094 507.410156 5.054688 506.507812 C 13.503906 500.722656 21.429688 496.84375 32.589844 498.652344 C 71.214844 504.9375 109.269531 511.457031 146.800781 518.214844 C 157.4375 520.121094 163.554688 520.191406 173.957031 520.261719 C 174.386719 520.261719 174.742188 519.953125 174.789062 519.527344 C 174.839844 519.097656 174.578125 518.691406 174.148438 518.597656 C 169.71875 517.621094 163.601562 517.21875 155.796875 517.40625 C 153.15625 517.480469 150.847656 515.597656 150.371094 513.003906 L 134.234375 424.566406 C 133.878906 422.519531 134.640625 420.425781 136.257812 419.09375 L 148.417969 409.242188 C 150.75 407.335938 154.105469 407.386719 156.390625 409.359375 L 212.796875 458.078125 C 213.390625 458.578125 213.441406 459.484375 212.917969 460.078125 L 200.492188 473.738281 L 200.492188 473.761719 L 200.921875 474.164062 C 201.066406 474.285156 201.253906 474.285156 201.398438 474.164062 C 229.125 448.367188 260.585938 425.066406 289.90625 405.101562 C 290.523438 404.671875 290.570312 403.769531 289.976562 403.292969 C 271.105469 387.5625 250.089844 375.613281 226.933594 367.402344 C 226.101562 367.117188 225.171875 367.332031 224.554688 367.972656 C 220.890625 371.804688 211.441406 380.492188 206.179688 380.351562 C 205.207031 380.300781 204.515625 379.375 204.800781 378.445312 C 206.585938 372.378906 209.0625 367.308594 212.179688 363.238281 C 212.964844 362.191406 212.582031 360.667969 211.371094 360.144531 L 146.539062 331.753906 C 144.183594 330.730469 141.46875 330.992188 139.398438 332.488281 C 132.757812 337.296875 124.335938 344.269531 119.644531 344.367188 C 117.671875 344.414062 116.21875 342.484375 116.8125 340.605469 C 118.574219 335.011719 121.335938 329.683594 125.074219 324.589844 C 125.359375 324.183594 125.214844 323.636719 124.761719 323.445312 L 0.984375 272.277344 C 0.0585938 271.898438 -0.0390625 270.589844 0.84375 270.089844 C 14.667969 261.808594 31.636719 254.121094 48.128906 257.714844 C 194.378906 289.4375 289.976562 310.046875 334.957031 319.566406 C 335.265625 319.640625 337.3125 319.925781 341.121094 320.425781 C 341.976562 320.542969 342.335938 321.542969 341.761719 322.183594 C 334.410156 330.253906 328.078125 339.296875 322.796875 349.363281 C 322.75 349.484375 322.773438 349.625 322.890625 349.695312 L 322.914062 349.695312 C 323.058594 349.792969 323.273438 349.746094 323.367188 349.601562 C 333.148438 335.273438 346.476562 318.542969 361.777344 308 C 380.839844 294.886719 413.253906 288.035156 423.132812 316.210938 C 426.703125 326.398438 425.867188 336.394531 420.609375 346.222656 C 414.800781 357.074219 403.285156 361.191406 393.121094 354.410156 C 373.652344 341.414062 374.105469 316.925781 389.265625 301.097656 C 389.457031 300.886719 389.480469 300.574219 389.289062 300.363281 C 389.097656 300.148438 388.789062 300.101562 388.550781 300.265625 C 365.917969 316.117188 371.203125 348.53125 393.8125 360.644531 C 401.5 364.761719 405.042969 361.285156 411.730469 358.953125 C 412.566406 358.667969 413.253906 359.667969 412.683594 360.335938 C 397.453125 378.636719 378.199219 391.082031 354.949219 397.699219 C 354.613281 397.792969 354.425781 398.128906 354.496094 398.484375 L 354.519531 398.507812 C 354.566406 398.699219 354.757812 398.839844 354.972656 398.792969 C 374.675781 394.746094 391.667969 385.894531 405.925781 372.257812 C 414.46875 364.070312 421.511719 352.003906 426.988281 343.269531 C 427.414062 342.605469 428.128906 342.175781 428.914062 342.152344 C 437.222656 341.820312 447.359375 341.4375 459.328125 340.984375 C 463.542969 340.820312 467.300781 340.34375 470.632812 339.558594 C 470.921875 339.488281 471.109375 339.226562 471.085938 338.914062 C 471.039062 338.605469 470.800781 338.390625 470.492188 338.390625 L 430.058594 338.390625 C 429.105469 338.390625 428.390625 337.582031 428.488281 336.632812 C 429.367188 328.371094 428.558594 320.996094 426.058594 314.5 C 425.535156 313.164062 426.011719 311.667969 427.179688 310.855469 C 457.496094 290.007812 486.152344 269.519531 513.164062 249.359375 C 538.320312 230.605469 557.097656 217.257812 569.449219 209.308594 C 610.882812 182.699219 675.1875 137.292969 722.832031 163.445312 C 723.734375 163.945312 723.378906 165.328125 722.355469 165.304688 C 704.03125 164.96875 686.917969 164.089844 671.355469 174.894531 C 670.972656 175.15625 670.855469 175.65625 671.070312 176.058594 C 671.28125 176.441406 671.757812 176.632812 672.1875 176.488281 C 679.660156 173.824219 684.300781 171.992188 690.582031 171.179688 C 699.53125 170.015625 711.3125 168.921875 725.925781 167.847656 C 726.664062 167.777344 727.425781 167.824219 728.160156 167.945312 C 742.65625 170.347656 749.914062 178.941406 749.9375 193.671875 C 749.960938 208.757812 741.5625 224.5625 732.160156 237.414062 C 695.652344 287.414062 639.652344 318.328125 589.296875 352.695312 C 577.730469 360.597656 567.613281 367.070312 562.949219 378.921875 C 562.59375 379.777344 562.617188 380.753906 562.972656 381.609375 C 569.519531 397.03125 576.445312 411.976562 583.75 426.472656 C 585.273438 429.519531 584.632812 430.992188 582.441406 433.136719 C 582.394531 433.183594 582.371094 433.277344 582.417969 433.324219 C 582.417969 433.351562 582.441406 433.375 582.464844 433.398438 C 582.464844 433.421875 582.511719 433.421875 582.535156 433.398438 C 597.71875 417.023438 619.640625 403.601562 642.605469 408.242188 C 653.480469 410.457031 660.597656 422.070312 662.285156 433.253906 C 664.855469 450.367188 658.621094 464.027344 643.605469 474.214844 C 627.824219 484.875 610.453125 491.394531 591.460938 493.75 C 591.292969 493.773438 591.175781 493.894531 591.175781 494.0625 L 591.175781 494.085938 C 591.199219 494.25 591.320312 494.371094 591.484375 494.394531 C 604.121094 494.917969 616.070312 492.515625 627.328125 487.207031 C 628.46875 486.683594 629.800781 487.039062 630.492188 488.085938 L 673.6875 554.011719 C 674.234375 554.84375 674.019531 555.9375 673.234375 556.53125 C 670.257812 558.769531 666.640625 560.886719 662.382812 562.910156 C 658.503906 564.765625 654.339844 568.359375 649.339844 566.125 C 633.824219 559.175781 615.925781 549.917969 595.625 538.351562 C 594.863281 537.921875 593.960938 537.851562 593.152344 538.160156 C 586.652344 540.660156 582.011719 544.371094 574.5625 543.992188 C 573.613281 543.941406 573.136719 542.824219 573.753906 542.109375 L 582.964844 531.425781 C 584.011719 530.234375 583.703125 528.378906 582.324219 527.570312 L 545.695312 506.4375 C 543.816406 505.339844 541.460938 505.53125 539.769531 506.886719 L 524.894531 518.976562 C 523.941406 519.738281 522.5625 518.882812 522.847656 517.691406 C 524.445312 511.125 527.511719 505.03125 532.035156 499.414062 C 532.773438 498.511719 532.367188 497.128906 531.25 496.773438 L 495.742188 485.515625 C 495.171875 485.351562 494.574219 485.445312 494.078125 485.753906 L 474.585938 498.535156 C 472.847656 499.675781 470.632812 497.988281 471.277344 496.011719 C 472.777344 491.417969 475.25 487.085938 478.703125 483.019531 C 479.296875 482.328125 478.917969 481.28125 478.011719 481.089844 C 463.375 478.089844 449.429688 475.40625 436.148438 473 C 434.03125 472.617188 432.4375 471.738281 431.414062 470.335938 Z M 431.414062 470.335938 " fill-opacity="1" fill-rule="nonzero"/></svg>